HIERARCHY
ROOT Hips
{
    OFFSET 0.0 0.0 0.0
    CHANNELS 6 Xposition Yposition Zposition Zrotation Xrotation Yrotation
    JOINT LeftHipJoint
    {
        OFFSET 0.1 0.0 0.0
        CHANNELS 3 Zrotation Xrotation Yrotation
        JOINT LeftUpLeg
        {
            OFFSET 126.0098822316116 0.0 0.0
            CHANNELS 3 Zrotation Xrotation Yrotation
            JOINT LeftLeg
            {
                OFFSET 0.0 0.0 -438.4809385190634
                CHANNELS 3 Zrotation Xrotation Yrotation
                JOINT LeftFoot
                {
                    OFFSET 0.0 0.0 -414.9680586762096
                    CHANNELS 3 Zrotation Xrotation Yrotation
                    End Site
                    {
                        OFFSET 0.0 -0.1 0.0
                    }
                }
            }
        }
    }
    JOINT LowerBack
    {
        OFFSET 0.0 0.0 0.1
        CHANNELS 3 Zrotation Xrotation Yrotation
        JOINT Spine
        {
            OFFSET 0.0 0.0 235.61184957031097
            CHANNELS 3 Zrotation Xrotation Yrotation
            JOINT Spine1
            {
                OFFSET 0.0 0.0 250.34926963795118
                CHANNELS 3 Zrotation Xrotation Yrotation
                JOINT LeftShoulder
                {
                    OFFSET 0.1 0.0 0.0
                    CHANNELS 3 Zrotation Xrotation Yrotation
                    JOINT LeftArm
                    {
                        OFFSET 139.58382966553899 0.0 0.0
                        CHANNELS 3 Zrotation Xrotation Yrotation
                        JOINT LeftForeArm
                        {
                            OFFSET 260.80540009901813 0.0 0.0
                            CHANNELS 3 Zrotation Xrotation Yrotation
                            JOINT LeftHand
                            {
                                OFFSET 215.78538186453937 0.0 0.0
                                CHANNELS 3 Zrotation Xrotation Yrotation
                                End Site
                                {
                                    OFFSET 0.1 0.0 0.0
                                }
                            }
                        }
                    }
                }
                JOINT Neck
                {
                    OFFSET 0.0 0.0 0.1
                    CHANNELS 3 Zrotation Xrotation Yrotation
                    JOINT Neck1
                    {
                        OFFSET 0.0 0.0 96.6994421298385
                        CHANNELS 3 Zrotation Xrotation Yrotation
                        End Site
                        {
                            OFFSET 0.0 0.0 108.44757404515975
                        }
                    }
                }
                JOINT RightShoulder
                {
                    OFFSET -0.1 0.0 0.0
                    CHANNELS 3 Zrotation Xrotation Yrotation
                    JOINT RightArm
                    {
                        OFFSET -139.58382966553899 0.0 0.0
                        CHANNELS 3 Zrotation Xrotation Yrotation
                        JOINT RightForeArm
                        {
                            OFFSET -260.80540009901813 0.0 0.0
                            CHANNELS 3 Zrotation Xrotation Yrotation
                            JOINT RightHand
                            {
                                OFFSET -215.78538186453937 0.0 0.0
                                CHANNELS 3 Zrotation Xrotation Yrotation
                                End Site
                                {
                                    OFFSET -0.1 0.0 0.0
                                }
                            }
                        }
                    }
                }
            }
        }
    }
    JOINT RightHipJoint
    {
        OFFSET -0.1 0.0 0.0
        CHANNELS 3 Zrotation Xrotation Yrotation
        JOINT RightUpLeg
        {
            OFFSET -126.0098822316116 0.0 0.0
            CHANNELS 3 Zrotation Xrotation Yrotation
            JOINT RightLeg
            {
                OFFSET 0.0 0.0 -438.4809385190634
                CHANNELS 3 Zrotation Xrotation Yrotation
                JOINT RightFoot
                {
                    OFFSET 0.0 0.0 -414.9680586762096
                    CHANNELS 3 Zrotation Xrotation Yrotation
                    End Site
                    {
                        OFFSET 0.0 -0.1 0.0
                    }
                }
            }
        }
    }
}
MOTION
Frames: 8
Frame Time: 0.03333333333333333
0.0 0.0 922.1005703987036 8.403375002997855 36.298357504800045 -10.225152166539932 -7.951386703658792e-16 -1.3793457181406746e-33 1.987846675914698e-16 16.871110922807173 -57.16422428237043 9.799752949706154 -11.490768378365921 48.36079766448422 28.523665219643355 0.0 0.0 7.951386703658792e-16 -7.951386703658792e-16 -1.3793457181406746e-33 1.987846675914698e-16 -1.052343778455915 5.605214105495735 -0.8534907160617861 -7.034485413912905 -4.887084481147459e-15 -1.4953420023643049e-15 0.0 0.0 1.987846675914698e-16 -24.449770481558577 -8.715090205206971 43.55796730603588 -51.36058736120847 -4.354507271633558e-15 -5.622980244513396e-15 0.0 0.0 3.1805546814635168e-15 0.0 0.0 1.987846675914698e-16 15.223284542027676 -17.250582450763147 0.16186053987845767 0.0 0.0 1.987846675914698e-16 -25.331445422810244 -32.35032209414263 -56.49673510357704 67.11505522531105 -6.14587236264365e-15 -6.344643269618175e-16 6.3611093629270335e-15 3.531125038440127e-31 6.3611093629270335e-15 -7.951386703658792e-16 -1.3793457181406746e-33 1.987846675914698e-16 43.32970499018384 -74.75623465402559 36.49692006593038 -10.79920639367041 53.61472389735614 9.914109246823289 0.0 0.0 -9.93923337957349e-17
0.0 0.0 922.1005703987036 8.301198657171275 35.78179662993617 -10.838135677986694 0.0 0.0 0.0 17.037470401593502 -56.29715775350681 10.049869639199022 -11.89950547056484 48.9820527830336 29.476062019497956 0.0 0.0 0.0 0.0 0.0 0.0 -1.202318572139578 6.133307732458767 -0.42275556344663096 -6.536696019061826 2.4317783712577935e-15 -2.051326127197245e-15 0.0 0.0 0.0 -23.61898714323933 -9.428394803055282 43.62292012727785 -53.25084034263153 -1.7074632785469355e-14 5.671561853521376e-15 0.0 0.0 0.0 0.0 0.0 0.0 13.901718987434181 -17.34149077178238 0.47653571893597324 0.0 0.0 0.0 -26.589741856829534 -33.51230559636764 -56.673050405032 68.08928084388353 7.403026815334817e-15 2.4352161723715735e-15 0.0 0.0 1.5902773407317584e-15 0.0 0.0 0.0 43.11079843139046 -74.06459125901642 36.660345472979806 -9.786940789396834 51.963612163557016 8.757561208478627 1.5902773407317584e-15 -2.4848083448933725e-17 3.4483642953516864e-34
0.0 0.0 922.1005703987036 10.286969449185351 34.866909755172 -12.788462165296474 7.951386703658792e-16 9.93923337957349e-17 3.975693351829396e-16 17.830915470687636 -53.611593460167036 11.970715273094992 -11.820187462950313 49.842601011162365 28.702978443264684 -2.069018577211012e-33 -1.9878466759146985e-16 -1.1927080055488192e-15 7.951386703658792e-16 9.93923337957349e-17 3.975693351829396e-16 -1.8401297984383778 8.10392731961401 -0.2120632504162122 -6.697453528432278 -7.976344069287739e-15 2.3210260047826113e-15 0.0 0.0 2.9817700138720465e-16 -22.394349139001758 -11.441402744227338 40.50651652837794 -56.3984599640492 4.056354674158209e-16 -1.4218087828648555e-14 0.0 0.0 0.0 0.0 0.0 2.9817700138720465e-16 14.38643515248418 -18.738554841766145 2.2804394435870394 0.0 0.0 2.9817700138720465e-16 -29.605657581226698 -35.83801460474062 -56.44575658439834 66.23096403314298 -1.0569512730871714e-14 -1.649799095972377e-15 0.0 0.0 1.5902773407317584e-15 7.951386703658792e-16 9.93923337957349e-17 3.975693351829396e-16 43.654736192894966 -71.91834454101881 38.76277681301733 -6.845703906178508 46.98832084043567 7.30370907257015 -1.5902773407317584e-15 0.0 0.0
0.0 0.0 922.1005703987036 9.875457792825935 33.97320231603532 -12.495533999602749 0.0 0.0 0.0 15.958924127527537 -51.69321508964982 9.967880947239513 -12.013609409632927 49.581741706661525 29.211462251043944 6.896728590703373e-34 1.987846675914698e-16 -3.975693351829396e-16 0.0 0.0 0.0 -1.7850803598640756 8.16769704788078 -0.5336545033158392 -6.392907397889812 3.521097972930123e-15 1.7893966434969514e-15 0.0 0.0 -3.975693351829396e-16 -20.56886944433376 -10.759674149456899 40.79404389179921 -60.13645166904976 -4.6359577870274965e-15 -1.738440663393039e-14 0.0 0.0 1.5902773407317584e-15 0.0 0.0 -3.975693351829396e-16 13.197517684291624 -18.531944333773144 2.3589585060751346 0.0 0.0 -3.975693351829396e-16 -30.290315071031237 -37.333629185949 -55.5982327343422 68.98983874789012 -4.494898953290155e-15 1.8827121886924743e-15 0.0 0.0 -1.5902773407317584e-15 0.0 0.0 0.0 37.79343289798678 -70.50883147986853 33.39868164904336 -6.1761029650439845 45.44597109308309 5.661166994622824 -1.5902773407317584e-15 -4.969616689786745e-17 -9.93923337957349e-17
0.0 0.0 922.1005703987036 9.61561658938931 33.24996762629087 -12.563729859581015 -2.2069531490250793e-32 -6.3611093629270335e-15 -3.975693351829396e-16 14.934100479509498 -49.84860354702995 8.968943431104288 -12.102698078365519 49.18649397585355 29.42235651748459 0.0 0.0 -7.951386703658792e-16 -2.2069531490250793e-32 -6.3611093629270335e-15 -3.975693351829396e-16 -1.7982118471409159 8.219725187815731 -0.5666505018283556 -6.306973175392056 7.0163036679721346e-15 1.38198947533268e-15 3.975693351829396e-16 -6.896728590703373e-34 -1.987846675914698e-16 -18.713554468469177 -11.128853168210199 39.96569272154107 -63.774685053358645 -9.781846784816702e-15 -2.339819287074547e-15 0.0 0.0 0.0 3.975693351829396e-16 -6.896728590703373e-34 -1.987846675914698e-16 12.453537047123644 -18.407744861992168 2.327661185250631 3.975693351829396e-16 -6.896728590703373e-34 -1.987846675914698e-16 -31.125224926778106 -38.464694763845245 -55.50207581779764 69.28995182254806 2.890404397197131e-15 1.3854789347805998e-15 0.0 0.0 0.0 -2.2069531490250793e-32 -6.3611093629270335e-15 -3.975693351829396e-16 36.26480437205685 -69.8470250689121 32.0507177675968 -6.104203999098418 45.529287788801646 4.763178627760227 0.0 0.0 9.93923337957349e-17
0.0 0.0 922.1005703987036 10.155116536184112 31.694258593520807 -12.869806062523413 0.0 0.0 2.1866313435061676e-15 14.307297962329162 -48.24403075087102 8.44951289303901 -12.90959705499413 50.54306777389148 29.745934712105754 -2.758691436281349e-33 -1.987846675914698e-16 -1.5902773407317584e-15 0.0 0.0 2.1866313435061676e-15 -1.8027340177888742 8.122311769856266 -0.861692987823398 -6.404166923096593 -1.6854423684164874e-16 -2.547896969757544e-15 0.0 0.0 6.957463365701443e-16 -15.375747380487583 -13.125412589510086 40.41112166456013 -68.67542406028916 -1.6644322228947668e-15 -8.840649864666371e-15 6.3611093629270335e-15 3.1805546814635168e-15 3.975693351829394e-16 0.0 0.0 6.957463365701443e-16 12.201993294160287 -17.675760394783563 3.140655633053695 0.0 0.0 6.957463365701443e-16 -30.851588294469863 -38.94708132457457 -52.86809772758705 69.5753267556642 6.983907674152491e-15 -3.883533135579893e-15 2.2069531490250793e-32 1.5902773407317588e-15 -1.5902773407317588e-15 0.0 0.0 2.1866313435061676e-15 34.56604760804293 -68.78153510211955 31.28744790299988 -5.446755789996109 46.29355426227336 2.9065214304741223 0.0 0.0 1.987846675914698e-16
0.0 0.0 922.1005703987036 9.813891416468199 30.719974134458397 -12.791020033985129 0.0 0.0 -1.987846675914698e-16 13.40156234706163 -46.54293179018993 7.96446771934244 -12.449599352037232 50.1462874812118 28.77895097643944 0.0 0.0 0.0 0.0 0.0 -1.987846675914698e-16 -1.712821700881961 7.757056261629675 -1.0294249124034955 -5.96257839373623 -1.8869667557870996e-16 -1.1543883025352813e-15 -1.987846675914698e-16 1.034509288605506e-33 -5.963540027744094e-16 -11.437455297980621 -15.95650221918884 40.33180320304219 -72.88721629847848 -6.692223734738713e-16 -4.4479205903883876e-15 0.0 0.0 1.4908850069360235e-16 -1.987846675914698e-16 1.034509288605506e-33 -5.963540027744094e-16 11.955782812006511 -17.455375746664544 4.0893363774433125 -1.987846675914698e-16 1.034509288605506e-33 -5.963540027744094e-16 -30.86702307040157 -40.87337237872992 -51.173550733547536 71.70406031169271 -6.55300826038119e-15 1.792206632198093e-15 0.0 0.0 1.5902773407317584e-15 0.0 0.0 -1.987846675914698e-16 31.316594182738047 -67.12647554389562 28.462050721722015 -5.303437416202907 46.686475942361824 1.2335036766183516 0.0 0.0 -2.981770013872047e-16
0.0 0.0 922.1005703987036 9.253523083878436 29.904536222842523 -12.694286465790649 7.951386703658792e-16 -2.758691436281349e-33 -3.975693351829396e-16 12.942751020827222 -45.52561880643139 8.116875378542176 -11.72993675002681 49.85667917614334 27.362656510507833 0.0 0.0 3.975693351829396e-16 7.951386703658792e-16 -2.758691436281349e-33 -3.975693351829396e-16 -1.6014096896047803 7.2489123104476185 -1.209557620280919 -5.588281027725261 -4.51667826958307e-15 2.8337188377967314e-17 1.9878466759146985e-16 6.3735334046515004e-15 -5.466578358765419e-16 -7.344185413568054 -19.218602136754445 40.8443139140362 -75.90210054482048 -5.015966572469713e-15 -3.9120060929124864e-15 0.0 0.0 -1.5902773407317584e-15 1.9878466759146985e-16 6.3735334046515004e-15 -5.466578358765419e-16 12.604819695350074 -17.419879442382083 5.481214613116001 1.9878466759146985e-16 6.3735334046515004e-15 -5.466578358765419e-16 -28.965785350960818 -42.07523553852034 -48.7548706759771 71.72662222741266 5.590017590907901e-15 7.732726302498728e-15 0.0 0.0 1.5902773407317584e-15 7.951386703658792e-16 -2.758691436281349e-33 -3.975693351829396e-16 29.68978756847512 -66.09332100523606 26.959860274619604 -5.572273204494358 48.009640198177195 0.37885426493591784 0.0 0.0 3.975693351829396e-16
